# xmcd CD database file
#
# Track frame offsets:
#	150
#	24407
#	47960
#
# Disc length: 847 seconds
#
# Revision: 0
# Processed by: cddbd v1.5.1PL0 Copyright (c) Steve Scherf et al.
# Submitted via: CDex 1.51
#
DISCID=1e034d03
DTITLE=斉藤和義 - 月の向こう側
DYEAR=2001
DGENRE=JPop
TTITLE0=月の向こう側
TTITLE1=歩いて帰ろう (Acoustic Live Version)
TTITLE2=Little Painter Ragtime Blues (Saito Mix)
EXTD=YEAR: 2001
EXTT0=
EXTT1=
EXTT2=
PLAYORDER=
